<?xml version="1.0" encoding="utf-8"?>
<!-- Generator: Adobe Illustrator 22.0.0, SVG Export Plug-In . SVG Version: 6.00 Build 0)  -->
<svg version="1.1" id="图层_1" xmlns="http://www.w3.org/2000/svg" xmlns:xlink="http://www.w3.org/1999/xlink" x="0px" y="0px"
	 viewBox="0 0 24 24" style="enable-background:new 0 0 24 24;" xml:space="preserve">
<style type="text/css">
	.st0{fill:#7C7C7C;}
</style>
<path class="st0" d="M12,0C5.4,0,0,5.4,0,12c0,6.6,5.4,12,12,12s12-5.4,12-12C24,5.4,18.6,0,12,0z M19,14h-5v5c0,1.1-0.9,2-2,2
	s-2-0.9-2-2v-5H5c-1.1,0-2-0.9-2-2c0-1.1,0.9-2,2-2h5V5c0-1.1,0.9-2,2-2s2,0.9,2,2v5h5c1.1,0,2,0.9,2,2C21,13.1,20.1,14,19,14z"/>
</svg>
