<?xml version="1.0" encoding="UTF-8"?>
<svg width="66px" height="66px" viewBox="0 0 66 66" version="1.1" xmlns="http://www.w3.org/2000/svg" xmlns:xlink="http://www.w3.org/1999/xlink">
    <!-- Generator: Sketch 49 (51002) - http://www.bohemiancoding.com/sketch -->
    <title>Group</title>
    <desc>Created with Sketch.</desc>
    <defs></defs>
    <g id="Page-1" stroke="none" stroke-width="1" fill="none" fill-rule="evenodd">
        <g id="icon">
            <g id="Group">
                <circle id="Oval-6" fill="#4A90E2" cx="33" cy="33" r="33"></circle>
                <path d="M29,29 L29,12 C29,9.790861 30.790861,8 33,8 C35.209139,8 37,9.790861 37,12 L37,29 L54,29 C56.209139,29 58,30.790861 58,33 C58,35.209139 56.209139,37 54,37 L37,37 L37,54 C37,56.209139 35.209139,58 33,58 C30.790861,58 29,56.209139 29,54 L29,37 L12,37 C9.790861,37 8,35.209139 8,33 C8,30.790861 9.790861,29 12,29 L29,29 Z" id="Combined-Shape" fill="#F8E71C"></path>
            </g>
        </g>
    </g>
</svg>