<?xml version="1.0" encoding="utf-8"?>
<!-- Generator: Adobe Illustrator 22.0.0, SVG Export Plug-In . SVG Version: 6.00 Build 0)  -->
<svg version="1.1" id="图层_1" xmlns="http://www.w3.org/2000/svg" xmlns:xlink="http://www.w3.org/1999/xlink" x="0px" y="0px"
	 viewBox="0 0 1024 1024" style="enable-background:new 0 0 1024 1024;" xml:space="preserve">
<style type="text/css">
	.st0{fill:#545454;}
</style>
<path class="st0" d="M834.3,271H726.8l-34.1-93.4c-7-19.1-25.2-31.8-45.5-31.8h-259c-18.7,0-35.8,10.8-43.8,27.8L298.2,271H190.5
	c-67.9,0-123,55.1-123,123v360.7c0,67.9,55.1,123,123,123h643.8c67.9,0,123-55.1,123-123V394.1C957.3,326.1,902.3,271,834.3,271z
	 M511.3,758c-100.8,0-182.4-81.7-182.4-182.4s81.7-182.4,182.4-182.4s182.4,81.7,182.4,182.4S612.1,758,511.3,758z"/>
</svg>
