<?xml version="1.0" encoding="utf-8"?>
<!-- Generator: Adobe Illustrator 22.0.0, SVG Export Plug-In . SVG Version: 6.00 Build 0)  -->
<svg version="1.1" id="图层_1" xmlns="http://www.w3.org/2000/svg" xmlns:xlink="http://www.w3.org/1999/xlink" x="0px" y="0px"
	 viewBox="0 0 1024 1024" style="enable-background:new 0 0 1024 1024;" xml:space="preserve">
<style type="text/css">
	.st0{fill:#FFD8D8;}
	.st1{fill:#0080F4;}
	.st2{fill:#FCE5C5;}
	.st3{fill:#FFFFFF;}
	.st4{fill:none;stroke:#0080F4;stroke-width:8.485;stroke-linecap:round;stroke-linejoin:round;stroke-miterlimit:10;}
	.st5{fill:#FFFFFF;stroke:#0080F4;stroke-width:8.485;stroke-miterlimit:10;}
	.st6{fill:#027AFF;}
	.st7{fill:#D1E3FF;}
	.st8{fill:#FEC9AA;}
	.st9{fill:#00DBDD;}
	.st10{fill:#EB66AF;}
</style>
<g>
	<ellipse class="st0" cx="321.4" cy="513.7" rx="58.7" ry="67.2"/>
	<path class="st1" d="M321.4,589C321.4,589,321.4,589,321.4,589c-36.8,0-66.7-33.8-66.7-75.3c0-19.9,6.8-38.6,19.2-52.8
		c12.6-14.5,29.5-22.4,47.5-22.4c0,0,0,0,0,0c18,0,34.9,8,47.5,22.4c12.4,14.2,19.2,32.9,19.1,52.8c0,19.9-6.8,38.6-19.2,52.8
		C356.3,581,339.4,589,321.4,589z M321.4,454.6c-13.3,0-25.9,6-35.4,16.9c-9.8,11.2-15.2,26.2-15.2,42.2c0,32.6,22.7,59.2,50.6,59.2
		c0,0,0,0,0,0c13.3,0,25.9-6,35.4-16.9c9.8-11.2,15.2-26.2,15.2-42.2l0,0c0-16-5.4-31-15.2-42.2
		C347.3,460.6,334.8,454.6,321.4,454.6C321.4,454.6,321.4,454.6,321.4,454.6z"/>
</g>
<g>
	<ellipse class="st0" cx="701.9" cy="513.9" rx="58.7" ry="67.2"/>
	<path class="st1" d="M701.9,589.1C701.9,589.1,701.9,589.1,701.9,589.1c-36.8,0-66.7-33.8-66.7-75.3c0-41.5,29.9-75.2,66.7-75.2
		c0,0,0,0,0,0c18,0,34.9,8,47.5,22.4c12.4,14.2,19.2,32.9,19.1,52.8c0,19.9-6.8,38.6-19.2,52.8C736.8,581.2,719.9,589.1,701.9,589.1
		z M701.9,454.7c-27.9,0-50.6,26.5-50.7,59.1c0,32.6,22.7,59.2,50.6,59.2c0,0,0,0,0,0c13.3,0,25.9-6,35.4-16.9
		c9.8-11.2,15.2-26.2,15.2-42.2l0,0c0-16-5.4-31-15.2-42.2C727.8,460.7,715.2,454.7,701.9,454.7
		C701.9,454.7,701.9,454.7,701.9,454.7z"/>
</g>
<g>
	<path class="st2" d="M547.2,64.9c0,0,14.7,15.2,7.8,31.9"/>
	<path class="st1" d="M555,104.8c-1,0-2.1-0.2-3.1-0.6c-4.1-1.7-6.1-6.4-4.4-10.5c4.7-11.5-6.1-23.1-6.2-23.2
		c-3-3.2-2.9-8.3,0.3-11.3c3.2-3.1,8.2-3,11.3,0.2c0.7,0.8,18.3,19.2,9.5,40.5C561.2,102.9,558.2,104.8,555,104.8z"/>
</g>
<g>
	<path class="st1" d="M319.8,537.9c-1.5,0-3-0.4-4.4-1.3C285.9,517.4,285,495,285,494.1c-0.1-4.4,3.4-8.1,7.8-8.2
		c4.5-0.1,8.1,3.3,8.2,7.7c0.1,0.9,1.4,15.5,23.1,29.6c3.7,2.4,4.8,7.4,2.4,11.1C325,536.6,322.4,537.9,319.8,537.9z"/>
</g>
<g>
	<path class="st1" d="M709.5,543.7c-3.4,0-6.5-2.1-7.6-5.5c-1.4-4.2,0.9-8.8,5.1-10.2c16.2-5.4,13.5-32.9,13.5-33.2
		c-0.5-4.4,2.7-8.4,7.1-8.8c4.4-0.5,8.4,2.7,8.8,7.1c0.2,1.7,4.2,40.6-24.4,50.1C711.2,543.6,710.3,543.7,709.5,543.7z"/>
</g>
<g>
	<path class="st3" d="M774.6,961.6l0-35.9c0.1-138.5-117.9-251.9-262.1-252h0C368.4,673.7,250.3,787,250.3,925.5l0,35.9L774.6,961.6
		z"/>
	<path class="st1" d="M774.6,969.6C774.6,969.6,774.6,969.6,774.6,969.6l-524.3-0.2c-4.4,0-8-3.6-8-8l0-35.9
		c0.1-143.3,121.3-259.8,270.2-259.8c0,0,0.1,0,0.1,0c71.8,0,139.5,27.1,190.7,76.3c51.2,49.3,79.4,114.5,79.4,183.7l0,35.9
		c0,2.1-0.8,4.2-2.4,5.7C778.8,968.8,776.7,969.6,774.6,969.6z M258.3,953.4l508.3,0.2l0-27.8c0-64.8-26.4-125.9-74.5-172.1
		c-48.1-46.3-111.9-71.8-179.6-71.8c0,0-0.1,0-0.1,0c-67.6,0-131.4,25.5-179.5,71.7c-48.1,46.2-74.6,107.3-74.6,172.1L258.3,953.4z"
		/>
</g>
<g>
	<path class="st0" d="M514.4,651.1L514.4,651.1c-107.2,0-194.9-65.1-194.9-172.3l0.1-168c0-40.9,33.5-74.3,74.3-74.3l241.3,0.1
		c40.9,0,74.3,33.5,74.3,74.3l-0.1,168C709.4,586.1,621.7,651.1,514.4,651.1z"/>
	<path class="st1" d="M514.5,659.1c0,0-0.1,0-0.1,0c-55.4,0-106.1-17-142.8-47.8c-39.3-33-60.1-78.9-60.1-132.5l0.1-168
		c0-45.4,37-82.3,82.3-82.3c0,0,0,0,0,0l241.3,0.1c21.9,0,42.6,8.6,58.2,24.2c15.6,15.6,24.2,36.3,24.2,58.2l-0.1,168
		c0,53.7-20.8,99.5-60.2,132.5C620.6,642.1,569.9,659.1,514.5,659.1z M393.9,244.5c-36.5,0-66.3,29.7-66.3,66.3l-0.1,168
		c0,48.8,18.8,90.3,54.4,120.2c33.8,28.4,80.9,44.1,132.5,44.1l0,0c0,0,0.1,0,0.1,0c51.6,0,98.6-15.6,132.5-44
		c35.6-29.9,54.4-71.4,54.5-120.2l0.1-168c0-17.6-6.9-34.3-19.5-46.8c-12.6-12.6-29.2-19.5-46.8-19.5L393.9,244.5
		C393.9,244.5,393.9,244.5,393.9,244.5z"/>
</g>
<g>
	<path class="st4" d="M498.4,479.7"/>
</g>
<g>
	<path class="st5" d="M444.4,651"/>
</g>
<g>
	<path class="st1" d="M290.3,319.2C290.3,319.2,290.3,319.2,290.3,319.2c-4.4,0-8-3.6-8-8l0-49.2c0-4.4,3.6-8,8-8c0,0,0,0,0,0
		c4.4,0,8,3.6,8,8l0,49.2C298.3,315.6,294.7,319.2,290.3,319.2z"/>
</g>
<g>
	<circle class="st6" cx="423.3" cy="415.3" r="18.5"/>
	<path class="st6" d="M423.3,434.8C423.3,434.8,423.3,434.8,423.3,434.8c-5.2,0-10.1-2-13.8-5.7c-3.7-3.7-5.7-8.6-5.7-13.8
		c0-5.2,2-10.1,5.7-13.8c3.7-3.7,8.6-5.7,13.8-5.7c0,0,0,0,0,0c5.2,0,10.1,2,13.8,5.7c3.7,3.7,5.7,8.6,5.7,13.8h-1h1
		c0,5.2-2,10.1-5.7,13.8C433.4,432.8,428.5,434.8,423.3,434.8z M423.3,397.8c-4.7,0-9.1,1.8-12.4,5.1c-3.3,3.3-5.1,7.7-5.1,12.4
		c0,4.7,1.8,9.1,5.1,12.4c3.3,3.3,7.7,5.1,12.4,5.1c0,0,0,0,0,0c4.7,0,9.1-1.8,12.4-5.1c3.3-3.3,5.1-7.7,5.1-12.4
		c0-4.7-1.8-9.1-5.1-12.4C432.4,399.6,428,397.8,423.3,397.8C423.3,397.8,423.3,397.8,423.3,397.8z"/>
</g>
<g>
	<circle class="st6" cx="605.4" cy="415.4" r="18.5"/>
	<path class="st6" d="M605.4,434.9C605.4,434.9,605.4,434.9,605.4,434.9c-5.2,0-10.1-2-13.8-5.7s-5.7-8.6-5.7-13.8
		c0-5.2,2-10.1,5.7-13.8c3.7-3.7,8.6-5.7,13.8-5.7c0,0,0,0,0,0c5.2,0,10.1,2,13.8,5.7c3.7,3.7,5.7,8.6,5.7,13.8
		c0,5.2-2,10.1-5.7,13.8C615.5,432.9,610.6,434.9,605.4,434.9z M605.4,397.9c-4.7,0-9.1,1.8-12.4,5.1c-3.3,3.3-5.1,7.7-5.1,12.4
		c0,4.7,1.8,9.1,5.1,12.4c3.3,3.3,7.7,5.1,12.4,5.1c0,0,0,0,0,0c4.7,0,9.1-1.8,12.4-5.1c3.3-3.3,5.1-7.7,5.1-12.4
		c0-4.7-1.8-9.1-5.1-12.4C614.5,399.7,610.1,397.9,605.4,397.9C605.4,397.9,605.4,397.9,605.4,397.9z"/>
</g>
<g>
	<path class="st1" d="M605.2,878.7C605.2,878.7,605.2,878.7,605.2,878.7L414,878.6c-4.4,0-8-3.6-8-8c0-4.4,3.6-8,8-8c0,0,0,0,0,0
		l191.2,0.1c4.4,0,8,3.6,8,8C613.2,875.1,609.7,878.7,605.2,878.7z"/>
</g>
<g>
	<line class="st2" x1="355.3" y1="955.7" x2="355.4" y2="846"/>
	<path class="st1" d="M355.3,963.8C355.3,963.8,355.3,963.8,355.3,963.8c-4.4,0-8-3.6-8-8l0-109.8c0-4.4,3.6-8,8-8c0,0,0,0,0,0
		c4.4,0,8,3.6,8,8l0,109.8C363.4,960.2,359.8,963.8,355.3,963.8z"/>
</g>
<g>
	<line class="st2" x1="663.9" y1="955.9" x2="663.9" y2="846.1"/>
	<path class="st1" d="M663.9,963.9C663.9,963.9,663.9,963.9,663.9,963.9c-4.4,0-8-3.6-8-8l0-109.8c0-4.4,3.6-8,8-8c0,0,0,0,0,0
		c4.4,0,8,3.6,8,8l0,109.8C671.9,960.3,668.3,963.9,663.9,963.9z"/>
</g>
<g>
	<path class="st3" d="M460.3,512.8c3.2,25.6,25.1,45.4,51.6,45.4c26.5,0,48.4-19.8,51.6-45.4L460.3,512.8z"/>
	<path class="st1" d="M511.9,566.3C511.9,566.3,511.9,566.3,511.9,566.3c-30.2,0-55.8-22.6-59.6-52.5c-0.3-2.3,0.4-4.6,1.9-6.3
		c1.5-1.7,3.7-2.7,6-2.7c0,0,0,0,0,0l103.2,0c2.3,0,4.5,1,6,2.7c1.5,1.7,2.2,4,1.9,6.3C567.7,543.8,542,566.3,511.9,566.3z
		 M470.4,520.9c6.1,17.2,22.6,29.4,41.5,29.4c0,0,0,0,0,0c18.9,0,35.4-12.1,41.5-29.4L470.4,520.9z"/>
</g>
<g>
	<path class="st1" d="M511.7,480.5c-0.1,0-0.2,0-0.3,0c-7.4-0.1-13.2-4.9-16.8-9c-4.2,1.3-9.6,2.2-14.2,0.5c-3.4-1.2-6-3.7-7.4-7
		c-3.6-8.4-1.7-17.3,5.3-24.2c4.5-4.5,9.7-6.8,10.2-7.1c4.1-1.8,8.8,0,10.6,4.1c1.8,4,0,8.8-4,10.6c-0.4,0.2-7.8,3.7-7.7,8.5
		c1.9-0.3,4.7-1.3,6.5-2.2c3.8-1.9,8.4-0.5,10.5,3.2c1.9,3.1,5.5,6.7,7.5,6.7c0,0,0,0,0,0c1,0,2.9-1.3,5.3-5.1
		c2.3-3.7,7.1-4.8,10.9-2.6c1.7,1,5.2,2.1,6.8,1.4c0.7-0.3,1.5-1.5,2-3.3c-1.1-1.7-5.2-5-8.8-6.8c-4-2-5.6-6.8-3.6-10.8
		c2-4,6.8-5.6,10.8-3.6c19.4,9.7,18.3,21,17.4,24.3c-2.3,9.3-7.6,13.3-11.6,15c-5.1,2.1-10.4,1.5-14.4,0.4
		C521.1,479.1,515.7,480.5,511.7,480.5z"/>
</g>
<g>
	<path class="st7" d="M452.8,346.6l-75.5,25.9c-0.9,0.3-1.9-0.2-2.2-1.1l-5.2-15.2c-2.9-8.5,1.6-17.8,10.1-20.7l61.8-21.2
		c0.9-0.3,1.9,0.2,2.2,1.1l9.9,29C454.2,345.3,453.7,346.3,452.8,346.6z"/>
	<path class="st1" d="M377.6,380.2c-1.7,0-3.4-0.4-4.9-1.2c-2.7-1.3-4.7-3.6-5.7-6.5c-7-20.3,3.9-42.4,24.1-49.4l46.6-16
		c2.8-1,5.9-0.8,8.6,0.5c2.7,1.3,4.7,3.6,5.7,6.5l9,26.1c1,2.8,0.8,5.9-0.5,8.6c-1.3,2.7-3.6,4.7-6.5,5.7l-72.7,24.9
		C380.1,380,378.9,380.2,377.6,380.2z M438.4,324l-42,14.4c-10.3,3.5-16.5,13.8-15.2,24.3l63.1-21.7L438.4,324z"/>
</g>
<g>
	<path class="st7" d="M580,356.1l75.5,26c0.9,0.3,1.9-0.2,2.2-1.1l5.2-15.2c2.9-8.5-1.6-17.8-10.1-20.7l-61.7-21.2
		c-0.9-0.3-1.9,0.2-2.2,1.1l-10,29C578.6,354.8,579.1,355.8,580,356.1z"/>
	<path class="st1" d="M655.1,389.8c-1.2,0-2.4-0.2-3.7-0.6l-72.6-25c-2.8-1-5.1-3-6.5-5.7c-1.3-2.7-1.5-5.8-0.5-8.6l9-26.1
		c2-5.9,8.4-9,14.3-7l46.5,16c20.3,7,31.1,29.1,24.1,49.4C664.2,386.8,659.8,389.8,655.1,389.8z M588.6,350.5l63.1,21.7
		c1.3-10.4-4.9-20.7-15.2-24.3l-42-14.5L588.6,350.5z"/>
</g>
<g>
	<path class="st7" d="M554.4,124.8l-85.1,0c-101,0-183.7,78.3-183.7,174.1l-0.1,132.6c0,12.7,5.9,24.8,16.1,32.4
		c6,4.4,12.2,7.4,18.7,9.3c-0.5-5.4-0.8-10.8-0.8-16.2l0.1-159.3c0-1.7,0.1-3.5,0.2-5.2c7.6,4.7,16.6,7.4,26.3,7.4
		c26.7,0,48.3-20.5,48.3-45.8c0-9.9-3.3-19-8.9-26.5c0.8-0.1,1.7-0.1,2.5-0.2c19.1,25,67.7,42.7,124.7,42.7
		c57.1,0,105.8-17.8,124.9-42.9c0.2,0,0.5,0,0.7,0c-5.8,7.5-9.2,16.8-9.2,26.9c0,25.3,21.6,45.8,48.3,45.8
		c12.1,0,23.1-4.2,31.6-11.1c0.4,2.9,0.6,5.9,0.6,8.9L709.5,457c0,1.9,0,3.9-0.1,5.8c5.5-2.7,10.7-6.2,15.6-10.7
		c8.3-7.6,12.9-18.4,12.9-29.7l0-123.4C738,203.3,655.4,124.9,554.4,124.8z"/>
	<path class="st1" d="M329.4,484.1l-11.3-3.3c-7.6-2.2-14.7-5.8-21.2-10.5c-12.1-8.9-19.4-23.5-19.4-38.9l0.1-132.6
		c0-48.6,20.1-94.3,56.5-128.8c36.3-34.4,84.3-53.3,135.2-53.3c0,0,0.1,0,0.1,0l85.1,0c105.7,0,191.6,81.8,191.6,182.3l0,123.4
		c0,13.6-5.7,26.6-15.5,35.6c-5.3,4.8-11.2,8.9-17.4,12l-12,6l0.4-13.4c0.1-1.8,0.1-3.7,0.1-5.5l0.1-154.3
		c-7.5,3.4-15.7,5.2-24.1,5.2c0,0,0,0,0,0c-31,0-56.3-24.2-56.3-53.8c0-0.7,0-1.3,0-2c-26.2,16.3-65.4,26-108.3,26c0,0-0.1,0-0.1,0
		c-44,0-84.2-10.3-110.4-27.4c0.1,1.1,0.1,2.2,0.1,3.3c0,14.5-5.9,28-16.7,38.2c-10.6,10.1-24.7,15.6-39.6,15.6c0,0,0,0,0,0
		c-6.3,0-12.6-1-18.5-3l-0.1,152c0,5.1,0.2,10.3,0.7,15.5L329.4,484.1z M469.2,132.8c-46.8,0-90.8,17.4-124.1,48.9
		c-33.2,31.4-51.5,73.1-51.5,117.2l-0.1,132.6c0,10.3,4.8,20,12.9,25.9c1.7,1.2,3.4,2.4,5.2,3.4c0-1.3,0-2.6,0-3.9l0.1-159.3
		c0-1.7,0.1-3.6,0.2-5.8l1-13.1l11.2,6.9c6.6,4.1,14.2,6.2,22.1,6.2c0,0,0,0,0,0c10.8,0,21-4,28.6-11.2c7.5-7.1,11.6-16.5,11.6-26.5
		c0-7.8-2.5-15.3-7.3-21.7l-8.4-11.3l14-1.5c0.7-0.1,1.4-0.1,2.1-0.2l4.9-0.4l2.7,3.5c18.1,23.7,65.7,39.6,118.3,39.6
		c0,0,0.1,0,0.1,0c60.9,0,103.4-19.9,118.4-39.7l2.5-3.3l20.4,0.8l-9.4,12.3c-4.9,6.4-7.5,14-7.5,22c0,20.8,18,37.8,40.2,37.8
		c0,0,0,0,0,0c9.7,0,19.1-3.3,26.4-9.3l11.1-9.1l1.9,14.3c0.5,3.5,0.7,6.7,0.7,10L717.5,448c0.7-0.6,1.4-1.2,2.1-1.8
		c6.5-6,10.3-14.6,10.3-23.7l0-123.4c0-91.6-78.7-166.2-175.5-166.2L469.2,132.8C469.2,132.8,469.2,132.8,469.2,132.8z"/>
</g>
<g>
	<path class="st0" d="M514.7,659.6L514.7,659.6c-15.6,0-30.8-1.9-45.4-5.4l0,64.3c0,25,20.2,45.2,45.2,45.2h0
		c25,0,45.2-20.2,45.2-45.2l0-64.2C545.2,657.7,530.1,659.6,514.7,659.6z"/>
	<path class="st1" d="M514.4,771.7C514.4,771.7,514.4,771.7,514.4,771.7c-14.2,0-27.6-5.5-37.6-15.6c-10-10.1-15.6-23.4-15.6-37.6
		l0-74.5l9.9,2.4c14.2,3.4,28.9,5.2,43.5,5.2c0,0,0,0,0.1,0c14.5,0,29-1.7,43-5l9.9-2.4l0,74.4c0,14.2-5.5,27.6-15.6,37.6
		C542,766.2,528.6,771.7,514.4,771.7z M477.3,664.1l0,54.4c0,9.9,3.9,19.3,10.9,26.3c7,7,16.3,10.9,26.3,10.9c0,0,0,0,0,0
		c9.9,0,19.2-3.9,26.3-10.9c7-7,10.9-16.3,10.9-26.3l0-54.3c-12.1,2.2-24.5,3.4-36.8,3.4c0,0,0,0-0.1,0l0,0
		C502.1,667.6,489.6,666.4,477.3,664.1z"/>
</g>
<g>
	<path class="st8" d="M368.9,105.8C248.8,141.7,242,249.6,289.3,273.5c43.5-33.2,113.7-52.4,185.8-52.4
		c131,0.1,262.9,43.1,262.9,129c0,11,2.5-8.5,3.5-17.1c0.3-2.3,1.4-4.4,3.2-5.9c23.7-19.4,34.5-52.9,2.9-100
		C685,134.3,552.5,51,368.9,105.8z"/>
	<path class="st1" d="M738.4,361.5c-0.2,0-0.4,0-0.6,0c-5.2-0.3-7.9-4.1-7.9-11.3c0-45.9-42.1-73.9-77.5-89.4
		c-46.7-20.4-109.7-31.6-177.4-31.6c0,0-0.1,0-0.2,0c-71.6,0-139.2,19-180.7,50.7l-4,3.1l-4.5-2.3c-22-11.1-34-37-31.3-67.5
		c3.6-40.5,35-92,112.2-115.1l2.3,7.7l-2.3-7.7C553.1,42.5,689,126,754.1,222.6c42,62.4,10.9,98.2-4.4,110.7
		c-0.2,0.1-0.3,0.3-0.3,0.6c-0.3,3.2-1,8.5-1.6,13C746.7,354.4,745.6,361.5,738.4,361.5z M474.9,213.1c0.1,0,0.1,0,0.2,0
		c69.8,0,135.1,11.7,183.8,33c43.1,18.8,70.9,44,81.8,73.8c24.4-20.9,24.4-52.2,0.1-88.3c-61.9-92-191.5-171.3-369.6-118.1
		c-69.6,20.8-97.7,65.9-100.8,101.1c-1.9,21.3,5.3,40,18.4,49.2C333.3,232,402.3,213.1,474.9,213.1z"/>
</g>
<g>
	<g>
		<rect x="357.3" y="878.2" class="st9" width="306.6" height="79.4"/>
	</g>
	<g>
		<path class="st1" d="M364.9,885.8l291.3,0.1l0,64.2L364.9,950L364.9,885.8 M349.7,870.6l0,94.6l321.8,0.1l0-94.6L349.7,870.6
			L349.7,870.6z"/>
	</g>
</g>
<g>
	<g>
		<path class="st10" d="M382.8,912.2L382.8,912.2c15.1,0,27.5-12.3,27.5-27.4l0.1-199c0-3.4-3.5-5.7-6.7-4.3
			c-9.7,4.3-19.1,9.1-28.1,14.5c-12.5,7.4-20.1,20.9-20.1,35.4l-0.1,153.4C355.3,899.9,367.7,912.2,382.8,912.2z"/>
		<path class="st1" d="M382.8,920.3C382.8,920.3,382.8,920.3,382.8,920.3c-9.5,0-18.4-3.7-25.1-10.4c-6.7-6.7-10.4-15.6-10.4-25.1
			l0.1-153.4c0-17.3,9.2-33.6,24.1-42.4c9.3-5.5,19.1-10.5,29-14.9c4-1.8,8.5-1.4,12.1,1c3.6,2.4,5.8,6.4,5.8,10.7l-0.1,199
			c0,9.4-3.7,18.3-10.4,25.1C401.1,916.6,392.2,920.3,382.8,920.3z M402.3,690.9c-7.7,3.6-15.3,7.6-22.6,11.9
			c-10,5.9-16.2,16.9-16.2,28.5l-0.1,153.4c0,5.2,2,10,5.7,13.7c3.7,3.7,8.5,5.7,13.7,5.7c0,0,0,0,0,0c5.2,0,10-2,13.7-5.7
			c3.7-3.7,5.7-8.5,5.7-13.7L402.3,690.9z"/>
	</g>
	<g>
		<rect x="355.4" y="825.1" class="st7" width="54.9" height="28.4"/>
		<path class="st1" d="M418.3,861.6l-71,0l0-44.5l71,0L418.3,861.6z M363.4,845.5l38.8,0l0-12.3l-38.8,0L363.4,845.5z"/>
	</g>
</g>
<g>
	<g>
		<path class="st10" d="M636.4,912.3L636.4,912.3c-15.1,0-27.4-12.4-27.4-27.5l0.1-199c0-3.4,3.5-5.7,6.7-4.3
			c9.7,4.3,19.1,9.1,28.1,14.5c12.5,7.4,20.1,20.9,20.1,35.5l-0.1,153.4C663.9,900,651.5,912.3,636.4,912.3z"/>
		<path class="st1" d="M636.5,920.4C636.4,920.4,636.4,920.4,636.5,920.4c-9.5,0-18.4-3.7-25.1-10.4c-6.7-6.7-10.4-15.6-10.4-25.1
			l0.1-199c0-4.3,2.2-8.3,5.8-10.7c3.6-2.4,8.2-2.7,12.1-1c9.9,4.4,19.6,9.4,28.9,14.9c14.8,8.8,24.1,25,24,42.4l-0.1,153.4
			c0,9.4-3.7,18.3-10.4,25.1C654.8,916.7,645.9,920.4,636.5,920.4z M617.1,691L617,884.9c0,5.2,2,10,5.7,13.7
			c3.7,3.7,8.5,5.7,13.7,5.7c0,0,0,0,0,0c5.2,0,10-2,13.7-5.7c3.7-3.7,5.7-8.5,5.7-13.7l0.1-153.4c0-11.7-6.2-22.6-16.2-28.6
			C632.4,698.6,624.8,694.6,617.1,691z"/>
	</g>
	<g>
		<rect x="609" y="825.2" class="st7" width="54.9" height="28.4"/>
		<path class="st1" d="M671.9,861.7l-71,0l0-44.5l71,0L671.9,861.7z M617,845.6l38.8,0l0-12.3l-38.8,0L617,845.6z"/>
	</g>
</g>
<g>
	<rect x="486" y="859.3" class="st7" width="54.9" height="24.6"/>
	<path class="st1" d="M548.9,891.9l-71,0l0-40.7l71,0L548.9,891.9z M494,875.8l38.8,0l0-8.5l-38.8,0L494,875.8z"/>
</g>
<g>
	<path class="st0" d="M251,906.5c-0.5,6.3-0.8,12.6-0.8,19l0,35.9l104.1,0l0-54.9L251,906.5z"/>
	<path class="st1" d="M362.4,969.5l-120.2,0l0-43.9c0-6.5,0.3-13.1,0.8-19.7l0.6-7.4l118.8,0L362.4,969.5z M258.3,953.4l88,0l0-38.8
		l-87.8,0c-0.2,3.7-0.3,7.4-0.3,11L258.3,953.4z"/>
</g>
<g>
	<path class="st0" d="M662.8,904.8c-0.5,6.3-0.8,12.6-0.8,19l0,35.9l111.7,0l0-54.9L662.8,904.8z"/>
	<path class="st1" d="M781.7,967.7l-127.7,0l0-43.9c0-6.6,0.3-13.2,0.8-19.7l0.6-7.4l126.3,0L781.7,967.7z M670,951.6l95.6,0l0-38.8
		l-95.3,0c-0.2,3.7-0.3,7.4-0.3,11L670,951.6z"/>
</g>
</svg>
