<?xml version="1.0" encoding="UTF-8"?>
<svg width="66px" height="66px" viewBox="0 0 66 66" version="1.1" xmlns="http://www.w3.org/2000/svg" xmlns:xlink="http://www.w3.org/1999/xlink">
    <!-- Generator: Sketch 49 (51002) - http://www.bohemiancoding.com/sketch -->
    <title>follow-sketch</title>
    <desc>Created with Sketch.</desc>
    <defs></defs>
    <g id="Page-1" stroke="none" stroke-width="1" fill="none" fill-rule="evenodd">
        <g id="icon" fill="#4A90E2">
            <path d="M29,29 L12,29 C9.790861,29 8,30.790861 8,33 C8,35.209139 9.790861,37 12,37 L29,37 L29,54 C29,56.209139 30.790861,58 33,58 C35.209139,58 37,56.209139 37,54 L37,37 L54,37 C56.209139,37 58,35.209139 58,33 C58,30.790861 56.209139,29 54,29 L37,29 L37,12 C37,9.790861 35.209139,8 33,8 C30.790861,8 29,9.790861 29,12 L29,29 Z M33,66 C14.7746033,66 0,51.2253967 0,33 C0,14.7746033 14.7746033,0 33,0 C51.2253967,0 66,14.7746033 66,33 C66,51.2253967 51.2253967,66 33,66 Z" id="follow-sketch"></path>
        </g>
    </g>
</svg>